<svg width="62" height="63" viewBox="0 0 62 63" fill="none" xmlns="http://www.w3.org/2000/svg">
<g filter="url(#filter0_d)">
<ellipse cx="31" cy="27.8045" rx="27" ry="27.0115" fill="#F5F5F5"/>
<path d="M34.8003 27C36.4603 27 37.7903 25.66 37.7903 24C37.7903 22.34 36.4603 21 34.8003 21C33.1403 21 31.8003 22.34 31.8003 24C31.8003 25.66 33.1403 27 34.8003 27ZM26.8003 27C28.4603 27 29.7903 25.66 29.7903 24C29.7903 22.34 28.4603 21 26.8003 21C25.1403 21 23.8003 22.34 23.8003 24C23.8003 25.66 25.1403 27 26.8003 27ZM26.8003 29C24.4703 29 19.8003 30.17 19.8003 32.5V35H33.8003V32.5C33.8003 30.17 29.1303 29 26.8003 29ZM34.8003 29C34.5103 29 34.1803 29.02 33.8303 29.05C34.9903 29.89 35.8003 31.02 35.8003 32.5V35H41.8003V32.5C41.8003 30.17 37.1303 29 34.8003 29Z" fill="#212121"/>
</g>
<defs>
<filter id="filter0_d" x="0" y="0.79303" width="62" height="62.023" filterUnits="userSpaceOnUse" color-interpolation-filters="sRGB">
<feFlood flood-opacity="0" result="BackgroundImageFix"/>
<feColorMatrix in="SourceAlpha" type="matrix" values="0 0 0 0 0 0 0 0 0 0 0 0 0 0 0 0 0 0 127 0"/>
<feOffset dy="4"/>
<feGaussianBlur stdDeviation="2"/>
<feColorMatrix type="matrix" values="0 0 0 0 0 0 0 0 0 0 0 0 0 0 0 0 0 0 0.25 0"/>
<feBlend mode="normal" in2="BackgroundImageFix" result="effect1_dropShadow"/>
<feBlend mode="normal" in="SourceGraphic" in2="effect1_dropShadow" result="shape"/>
</filter>
</defs>
</svg>
