<svg width="23" height="15" viewBox="0 0 23 15" fill="none" xmlns="http://www.w3.org/2000/svg">
<path d="M15.8003 6.20697C17.4603 6.20697 18.7903 4.86697 18.7903 3.20697C18.7903 1.54697 17.4603 0.20697 15.8003 0.20697C14.1403 0.20697 12.8003 1.54697 12.8003 3.20697C12.8003 4.86697 14.1403 6.20697 15.8003 6.20697ZM7.80029 6.20697C9.46029 6.20697 10.7903 4.86697 10.7903 3.20697C10.7903 1.54697 9.46029 0.20697 7.80029 0.20697C6.14029 0.20697 4.80029 1.54697 4.80029 3.20697C4.80029 4.86697 6.14029 6.20697 7.80029 6.20697ZM7.80029 8.20697C5.47029 8.20697 0.800293 9.37697 0.800293 11.707V14.207H14.8003V11.707C14.8003 9.37697 10.1303 8.20697 7.80029 8.20697ZM15.8003 8.20697C15.5103 8.20697 15.1803 8.22697 14.8303 8.25697C15.9903 9.09697 16.8003 10.227 16.8003 11.707V14.207H22.8003V11.707C22.8003 9.37697 18.1303 8.20697 15.8003 8.20697Z" fill="white"/>
</svg>
